<svg class="main-svg" xmlns="http://www.w3.org/2000/svg" xmlns:xlink="http://www.w3.org/1999/xlink" width="250" height="400" style="" viewBox="0 0 250 400"><rect x="0" y="0" width="250" height="400" style="fill: rgb(255, 255, 255); fill-opacity: 1;"/><defs id="defs-3b19e3"><g class="clips"><clipPath id="clip3b19e3xyplot" class="plotclip"><rect width="241" height="384"/></clipPath><clipPath class="axesclip" id="clip3b19e3x"><rect x="9" y="0" width="241" height="400"/></clipPath><clipPath class="axesclip" id="clip3b19e3y"><rect x="0" y="0" width="250" height="384"/></clipPath><clipPath class="axesclip" id="clip3b19e3xy"><rect x="9" y="0" width="241" height="384"/></clipPath></g><g class="gradients"/></defs><g class="bglayer"><rect class="bg" x="9" y="0" width="241" height="384" style="fill: rgb(229, 236, 246); fill-opacity: 1; stroke-width: 0;"/></g><g class="layer-below"><g class="imagelayer"/><g class="shapelayer"/></g><g class="cartesianlayer"><g class="subplot xy"><g class="layer-subplot"><g class="shapelayer"/><g class="imagelayer"/></g><g class="gridlayer"><g class="x"><path class="xgrid crisp" transform="translate(72.31,0)" d="M0,0v384" style="stroke: rgb(255, 255, 255); stroke-opacity: 1; stroke-width: 1px;"/><path class="xgrid crisp" transform="translate(152.32,0)" d="M0,0v384" style="stroke: rgb(255, 255, 255); stroke-opacity: 1; stroke-width: 1px;"/><path class="xgrid crisp" transform="translate(232.33,0)" d="M0,0v384" style="stroke: rgb(255, 255, 255); stroke-opacity: 1; stroke-width: 1px;"/></g><g class="y"><path class="ygrid crisp" transform="translate(0,288.93)" d="M9,0h241" style="stroke: rgb(255, 255, 255); stroke-opacity: 1; stroke-width: 1px;"/><path class="ygrid crisp" transform="translate(0,224.31)" d="M9,0h241" style="stroke: rgb(255, 255, 255); stroke-opacity: 1; stroke-width: 1px;"/><path class="ygrid crisp" transform="translate(0,159.69)" d="M9,0h241" style="stroke: rgb(255, 255, 255); stroke-opacity: 1; stroke-width: 1px;"/><path class="ygrid crisp" transform="translate(0,95.07)" d="M9,0h241" style="stroke: rgb(255, 255, 255); stroke-opacity: 1; stroke-width: 1px;"/><path class="ygrid crisp" transform="translate(0,30.45)" d="M9,0h241" style="stroke: rgb(255, 255, 255); stroke-opacity: 1; stroke-width: 1px;"/></g></g><g class="zerolinelayer"><path class="yzl zl crisp" transform="translate(0,353.55)" d="M9,0h241" style="stroke: rgb(255, 255, 255); stroke-opacity: 1; stroke-width: 2px;"/></g><path class="xlines-below"/><path class="ylines-below"/><g class="overlines-below"/><g class="xaxislayer-below"/><g class="yaxislayer-below"/><g class="overaxes-below"/><g class="plot" transform="translate(9,0)" clip-path="url('#clip3b19e3xyplot')"><g class="scatterlayer mlayer"><g class="trace scatter trace721d07" style="stroke-miterlimit: 2; opacity: 1;"><g class="fills"/><g class="errorbars"/><g class="lines"><path class="js-line" d="M103.31,30.45L103.31,95.07" style="vector-effect: non-scaling-stroke; fill: none; stroke: rgb(210, 210, 210); stroke-opacity: 1; stroke-width: 2px; opacity: 1;"/><path class="js-line" d="M103.31,30.45L143.32,95.07" style="vector-effect: non-scaling-stroke; fill: none; stroke: rgb(210, 210, 210); stroke-opacity: 1; stroke-width: 2px; opacity: 1;"/><path class="js-line" d="M103.31,95.07L103.31,159.69" style="vector-effect: non-scaling-stroke; fill: none; stroke: rgb(210, 210, 210); stroke-opacity: 1; stroke-width: 2px; opacity: 1;"/><path class="js-line" d="M103.31,95.07L23.3,159.69" style="vector-effect: non-scaling-stroke; fill: none; stroke: rgb(210, 210, 210); stroke-opacity: 1; stroke-width: 2px; opacity: 1;"/><path class="js-line" d="M103.31,95.07L63.31,159.69" style="vector-effect: non-scaling-stroke; fill: none; stroke: rgb(210, 210, 210); stroke-opacity: 1; stroke-width: 2px; opacity: 1;"/><path class="js-line" d="M143.32,95.07L23.3,159.69" style="vector-effect: non-scaling-stroke; fill: none; stroke: rgb(210, 210, 210); stroke-opacity: 1; stroke-width: 2px; opacity: 1;"/><path class="js-line" d="M143.32,95.07L223.33,159.69" style="vector-effect: non-scaling-stroke; fill: none; stroke: rgb(210, 210, 210); stroke-opacity: 1; stroke-width: 2px; opacity: 1;"/><path class="js-line" d="M143.32,95.07L143.32,159.69" style="vector-effect: non-scaling-stroke; fill: none; stroke: rgb(210, 210, 210); stroke-opacity: 1; stroke-width: 2px; opacity: 1;"/><path class="js-line" d="M143.32,95.07L183.32,159.69" style="vector-effect: non-scaling-stroke; fill: none; stroke: rgb(210, 210, 210); stroke-opacity: 1; stroke-width: 2px; opacity: 1;"/><path class="js-line" d="M103.31,159.69L103.31,224.31" style="vector-effect: non-scaling-stroke; fill: none; stroke: rgb(210, 210, 210); stroke-opacity: 1; stroke-width: 2px; opacity: 1;"/><path class="js-line" d="M143.32,224.31L103.31,288.93" style="vector-effect: non-scaling-stroke; fill: none; stroke: rgb(210, 210, 210); stroke-opacity: 1; stroke-width: 2px; opacity: 1;"/><path class="js-line" d="M23.3,159.69L63.31,224.31" style="vector-effect: non-scaling-stroke; fill: none; stroke: rgb(210, 210, 210); stroke-opacity: 1; stroke-width: 2px; opacity: 1;"/><path class="js-line" d="M103.31,224.31L63.31,288.93" style="vector-effect: non-scaling-stroke; fill: none; stroke: rgb(210, 210, 210); stroke-opacity: 1; stroke-width: 2px; opacity: 1;"/><path class="js-line" d="M63.31,224.31L63.31,288.93" style="vector-effect: non-scaling-stroke; fill: none; stroke: rgb(210, 210, 210); stroke-opacity: 1; stroke-width: 2px; opacity: 1;"/><path class="js-line" d="M63.31,224.31L103.31,288.93" style="vector-effect: non-scaling-stroke; fill: none; stroke: rgb(210, 210, 210); stroke-opacity: 1; stroke-width: 2px; opacity: 1;"/><path class="js-line" d="M103.31,288.93L63.31,353.55" style="vector-effect: non-scaling-stroke; fill: none; stroke: rgb(210, 210, 210); stroke-opacity: 1; stroke-width: 2px; opacity: 1;"/><path class="js-line" d="M63.31,288.93L63.31,353.55" style="vector-effect: non-scaling-stroke; fill: none; stroke: rgb(210, 210, 210); stroke-opacity: 1; stroke-width: 2px; opacity: 1;"/><path class="js-line" d="M63.31,159.69L63.31,224.31" style="vector-effect: non-scaling-stroke; fill: none; stroke: rgb(210, 210, 210); stroke-opacity: 1; stroke-width: 2px; opacity: 1;"/><path class="js-line" d="M223.33,159.69L183.32,224.31" style="vector-effect: non-scaling-stroke; fill: none; stroke: rgb(210, 210, 210); stroke-opacity: 1; stroke-width: 2px; opacity: 1;"/><path class="js-line" d="M143.32,159.69L103.31,224.31" style="vector-effect: non-scaling-stroke; fill: none; stroke: rgb(210, 210, 210); stroke-opacity: 1; stroke-width: 2px; opacity: 1;"/><path class="js-line" d="M183.32,159.69L143.32,224.31" style="vector-effect: non-scaling-stroke; fill: none; stroke: rgb(210, 210, 210); stroke-opacity: 1; stroke-width: 2px; opacity: 1;"/><path class="js-line" d="M143.32,288.93L103.31,353.55" style="vector-effect: non-scaling-stroke; fill: none; stroke: rgb(210, 210, 210); stroke-opacity: 1; stroke-width: 2px; opacity: 1;"/><path class="js-line" d="M183.32,224.31L143.32,288.93" style="vector-effect: non-scaling-stroke; fill: none; stroke: rgb(210, 210, 210); stroke-opacity: 1; stroke-width: 2px; opacity: 1;"/></g><g class="points"/><g class="text"/></g><g class="trace scatter trace3db4ee" style="stroke-miterlimit: 2; opacity: 0.8;"><g class="fills"/><g class="errorbars"/><g class="lines"/><g class="points"><path class="point" transform="translate(103.31,30.45)" d="M9,0A9,9 0 1,1 0,-9A9,9 0 0,1 9,0ZM0,0.5L0.5,0L0,-0.5L-0.5,0Z" style="opacity: 1; stroke-width: 1px; fill: rgb(97, 117, 193); fill-opacity: 1; stroke: rgb(50, 50, 50); stroke-opacity: 1;"/><path class="point" transform="translate(143.32,353.55)" d="M9,0A9,9 0 1,1 0,-9A9,9 0 0,1 9,0ZM0,0.5L0.5,0L0,-0.5L-0.5,0Z" style="opacity: 1; stroke-width: 1px; fill: rgb(97, 117, 193); fill-opacity: 1; stroke: rgb(50, 50, 50); stroke-opacity: 1;"/><path class="point" transform="translate(103.31,95.07)" d="M9,0A9,9 0 1,1 0,-9A9,9 0 0,1 9,0ZM0,0.5L0.5,0L0,-0.5L-0.5,0Z" style="opacity: 1; stroke-width: 1px; fill: rgb(97, 117, 193); fill-opacity: 1; stroke: rgb(50, 50, 50); stroke-opacity: 1;"/><path class="point" transform="translate(143.32,95.07)" d="M9,0A9,9 0 1,1 0,-9A9,9 0 0,1 9,0ZM0,0.5L0.5,0L0,-0.5L-0.5,0Z" style="opacity: 1; stroke-width: 1px; fill: rgb(97, 117, 193); fill-opacity: 1; stroke: rgb(50, 50, 50); stroke-opacity: 1;"/><path class="point" transform="translate(103.31,159.69)" d="M9,0A9,9 0 1,1 0,-9A9,9 0 0,1 9,0ZM0,0.5L0.5,0L0,-0.5L-0.5,0Z" style="opacity: 1; stroke-width: 1px; fill: rgb(97, 117, 193); fill-opacity: 1; stroke: rgb(50, 50, 50); stroke-opacity: 1;"/><path class="point" transform="translate(103.31,353.55)" d="M9,0A9,9 0 1,1 0,-9A9,9 0 0,1 9,0ZM0,0.5L0.5,0L0,-0.5L-0.5,0Z" style="opacity: 1; stroke-width: 1px; fill: rgb(97, 117, 193); fill-opacity: 1; stroke: rgb(50, 50, 50); stroke-opacity: 1;"/><path class="point" transform="translate(143.32,224.31)" d="M9,0A9,9 0 1,1 0,-9A9,9 0 0,1 9,0ZM0,0.5L0.5,0L0,-0.5L-0.5,0Z" style="opacity: 1; stroke-width: 1px; fill: rgb(97, 117, 193); fill-opacity: 1; stroke: rgb(50, 50, 50); stroke-opacity: 1;"/><path class="point" transform="translate(23.3,159.69)" d="M9,0A9,9 0 1,1 0,-9A9,9 0 0,1 9,0ZM0,0.5L0.5,0L0,-0.5L-0.5,0Z" style="opacity: 1; stroke-width: 1px; fill: rgb(97, 117, 193); fill-opacity: 1; stroke: rgb(50, 50, 50); stroke-opacity: 1;"/><path class="point" transform="translate(103.31,224.31)" d="M9,0A9,9 0 1,1 0,-9A9,9 0 0,1 9,0ZM0,0.5L0.5,0L0,-0.5L-0.5,0Z" style="opacity: 1; stroke-width: 1px; fill: rgb(97, 117, 193); fill-opacity: 1; stroke: rgb(50, 50, 50); stroke-opacity: 1;"/><path class="point" transform="translate(63.31,224.31)" d="M9,0A9,9 0 1,1 0,-9A9,9 0 0,1 9,0ZM0,0.5L0.5,0L0,-0.5L-0.5,0Z" style="opacity: 1; stroke-width: 1px; fill: rgb(97, 117, 193); fill-opacity: 1; stroke: rgb(50, 50, 50); stroke-opacity: 1;"/><path class="point" transform="translate(103.31,288.93)" d="M9,0A9,9 0 1,1 0,-9A9,9 0 0,1 9,0ZM0,0.5L0.5,0L0,-0.5L-0.5,0Z" style="opacity: 1; stroke-width: 1px; fill: rgb(97, 117, 193); fill-opacity: 1; stroke: rgb(50, 50, 50); stroke-opacity: 1;"/><path class="point" transform="translate(63.31,288.93)" d="M9,0A9,9 0 1,1 0,-9A9,9 0 0,1 9,0ZM0,0.5L0.5,0L0,-0.5L-0.5,0Z" style="opacity: 1; stroke-width: 1px; fill: rgb(97, 117, 193); fill-opacity: 1; stroke: rgb(50, 50, 50); stroke-opacity: 1;"/><path class="point" transform="translate(63.31,353.55)" d="M9,0A9,9 0 1,1 0,-9A9,9 0 0,1 9,0ZM0,0.5L0.5,0L0,-0.5L-0.5,0Z" style="opacity: 1; stroke-width: 1px; fill: rgb(97, 117, 193); fill-opacity: 1; stroke: rgb(50, 50, 50); stroke-opacity: 1;"/></g><g class="text"/></g><g class="trace scatter trace5611bc" style="stroke-miterlimit: 2; opacity: 1;"><g class="fills"/><g class="errorbars"/><g class="lines"/><g class="points"><path class="point" transform="translate(63.31,159.69)" d="M4.5,0A4.5,4.5 0 1,1 0,-4.5A4.5,4.5 0 0,1 4.5,0ZM0,0.5L0.5,0L0,-0.5L-0.5,0Z" style="opacity: 1; stroke-width: 1px; fill: rgb(97, 117, 193); fill-opacity: 1; stroke: rgb(50, 50, 50); stroke-opacity: 1;"/><path class="point" transform="translate(223.33,159.69)" d="M4.5,0A4.5,4.5 0 1,1 0,-4.5A4.5,4.5 0 0,1 4.5,0ZM0,0.5L0.5,0L0,-0.5L-0.5,0Z" style="opacity: 1; stroke-width: 1px; fill: rgb(97, 117, 193); fill-opacity: 1; stroke: rgb(50, 50, 50); stroke-opacity: 1;"/><path class="point" transform="translate(143.32,159.69)" d="M4.5,0A4.5,4.5 0 1,1 0,-4.5A4.5,4.5 0 0,1 4.5,0ZM0,0.5L0.5,0L0,-0.5L-0.5,0Z" style="opacity: 1; stroke-width: 1px; fill: rgb(97, 117, 193); fill-opacity: 1; stroke: rgb(50, 50, 50); stroke-opacity: 1;"/><path class="point" transform="translate(183.32,159.69)" d="M4.5,0A4.5,4.5 0 1,1 0,-4.5A4.5,4.5 0 0,1 4.5,0ZM0,0.5L0.5,0L0,-0.5L-0.5,0Z" style="opacity: 1; stroke-width: 1px; fill: rgb(97, 117, 193); fill-opacity: 1; stroke: rgb(50, 50, 50); stroke-opacity: 1;"/><path class="point" transform="translate(143.32,288.93)" d="M4.5,0A4.5,4.5 0 1,1 0,-4.5A4.5,4.5 0 0,1 4.5,0ZM0,0.5L0.5,0L0,-0.5L-0.5,0Z" style="opacity: 1; stroke-width: 1px; fill: rgb(97, 117, 193); fill-opacity: 1; stroke: rgb(50, 50, 50); stroke-opacity: 1;"/><path class="point" transform="translate(183.32,224.31)" d="M4.5,0A4.5,4.5 0 1,1 0,-4.5A4.5,4.5 0 0,1 4.5,0ZM0,0.5L0.5,0L0,-0.5L-0.5,0Z" style="opacity: 1; stroke-width: 1px; fill: rgb(97, 117, 193); fill-opacity: 1; stroke: rgb(50, 50, 50); stroke-opacity: 1;"/></g><g class="text"/></g></g></g><g class="overplot"/><path class="xlines-above crisp" d="M0,0" style="fill: none;"/><path class="ylines-above crisp" d="M0,0" style="fill: none;"/><g class="overlines-above"/><g class="xaxislayer-above"><g class="xtick"><text text-anchor="middle" x="0" y="397" transform="translate(72.31,0)" style="font-family: 'Open Sans', verdana, arial, sans-serif; font-size: 12px; fill: rgb(42, 63, 95); fill-opacity: 1; white-space: pre;">2</text></g><g class="xtick"><text text-anchor="middle" x="0" y="397" transform="translate(152.32,0)" style="font-family: 'Open Sans', verdana, arial, sans-serif; font-size: 12px; fill: rgb(42, 63, 95); fill-opacity: 1; white-space: pre;">4</text></g><g class="xtick"><text text-anchor="middle" x="0" y="397" transform="translate(232.33,0)" style="font-family: 'Open Sans', verdana, arial, sans-serif; font-size: 12px; fill: rgb(42, 63, 95); fill-opacity: 1; white-space: pre;">6</text></g></g><g class="yaxislayer-above"><g class="ytick"><text text-anchor="end" x="8" y="4.199999999999999" transform="translate(0,353.55)" style="font-family: 'Open Sans', verdana, arial, sans-serif; font-size: 12px; fill: rgb(42, 63, 95); fill-opacity: 1; white-space: pre;">0</text></g><g class="ytick"><text text-anchor="end" x="8" y="4.199999999999999" transform="translate(0,288.93)" style="font-family: 'Open Sans', verdana, arial, sans-serif; font-size: 12px; fill: rgb(42, 63, 95); fill-opacity: 1; white-space: pre;">1</text></g><g class="ytick"><text text-anchor="end" x="8" y="4.199999999999999" transform="translate(0,224.31)" style="font-family: 'Open Sans', verdana, arial, sans-serif; font-size: 12px; fill: rgb(42, 63, 95); fill-opacity: 1; white-space: pre;">2</text></g><g class="ytick"><text text-anchor="end" x="8" y="4.199999999999999" transform="translate(0,159.69)" style="font-family: 'Open Sans', verdana, arial, sans-serif; font-size: 12px; fill: rgb(42, 63, 95); fill-opacity: 1; white-space: pre;">3</text></g><g class="ytick"><text text-anchor="end" x="8" y="4.199999999999999" transform="translate(0,95.07)" style="font-family: 'Open Sans', verdana, arial, sans-serif; font-size: 12px; fill: rgb(42, 63, 95); fill-opacity: 1; white-space: pre;">4</text></g><g class="ytick"><text text-anchor="end" x="8" y="4.199999999999999" transform="translate(0,30.45)" style="font-family: 'Open Sans', verdana, arial, sans-serif; font-size: 12px; fill: rgb(42, 63, 95); fill-opacity: 1; white-space: pre;">5</text></g></g><g class="overaxes-above"/></g></g><g class="polarlayer"/><g class="ternarylayer"/><g class="geolayer"/><g class="funnelarealayer"/><g class="pielayer"/><g class="treemaplayer"/><g class="sunburstlayer"/><g class="glimages"/><defs id="topdefs-3b19e3"><g class="clips"/></defs><g class="layer-above"><g class="imagelayer"/><g class="shapelayer"/></g><g class="infolayer"><g class="g-gtitle"/><g class="g-xtitle"/><g class="g-ytitle"/><g class="annotation" data-index="0" style="opacity: 1;"><g class="annotation-text-g" transform="rotate(0,112.31,30.45)"><g class="cursor-pointer" transform="translate(107,22)"><rect class="bg" x="0.5" y="0.5" width="9" height="15" style="stroke-width: 1px; stroke: rgb(0, 0, 0); stroke-opacity: 0; fill: rgb(0, 0, 0); fill-opacity: 0;"/><text class="annotation-text" text-anchor="middle" x="5.1875" y="12" style="font-family: 'Open Sans', verdana, arial, sans-serif; font-size: 10px; fill: rgb(250, 250, 250); fill-opacity: 1; white-space: pre;">0</text></g></g></g><g class="annotation" data-index="1" style="opacity: 1;"><g class="annotation-text-g" transform="rotate(0,152.32,353.55)"><g class="cursor-pointer" transform="translate(147,346)"><rect class="bg" x="0.5" y="0.5" width="9" height="15" style="stroke-width: 1px; stroke: rgb(0, 0, 0); stroke-opacity: 0; fill: rgb(0, 0, 0); fill-opacity: 0;"/><text class="annotation-text" text-anchor="middle" x="5.1875" y="12" style="font-family: 'Open Sans', verdana, arial, sans-serif; font-size: 10px; fill: rgb(250, 250, 250); fill-opacity: 1; white-space: pre;">1</text></g></g></g><g class="annotation" data-index="2" style="opacity: 1;"><g class="annotation-text-g" transform="rotate(0,112.31,95.07)"><g class="cursor-pointer" transform="translate(107,87)"><rect class="bg" x="0.5" y="0.5" width="9" height="15" style="stroke-width: 1px; stroke: rgb(0, 0, 0); stroke-opacity: 0; fill: rgb(0, 0, 0); fill-opacity: 0;"/><text class="annotation-text" text-anchor="middle" x="5.1875" y="12" style="font-family: 'Open Sans', verdana, arial, sans-serif; font-size: 10px; fill: rgb(250, 250, 250); fill-opacity: 1; white-space: pre;">2</text></g></g></g><g class="annotation" data-index="3" style="opacity: 1;"><g class="annotation-text-g" transform="rotate(0,152.32,95.07)"><g class="cursor-pointer" transform="translate(147,87)"><rect class="bg" x="0.5" y="0.5" width="9" height="15" style="stroke-width: 1px; stroke: rgb(0, 0, 0); stroke-opacity: 0; fill: rgb(0, 0, 0); fill-opacity: 0;"/><text class="annotation-text" text-anchor="middle" x="5.1875" y="12" style="font-family: 'Open Sans', verdana, arial, sans-serif; font-size: 10px; fill: rgb(250, 250, 250); fill-opacity: 1; white-space: pre;">3</text></g></g></g><g class="annotation" data-index="4" style="opacity: 1;"><g class="annotation-text-g" transform="rotate(0,112.31,159.69)"><g class="cursor-pointer" transform="translate(107,152)"><rect class="bg" x="0.5" y="0.5" width="9" height="15" style="stroke-width: 1px; stroke: rgb(0, 0, 0); stroke-opacity: 0; fill: rgb(0, 0, 0); fill-opacity: 0;"/><text class="annotation-text" text-anchor="middle" x="5.1875" y="12" style="font-family: 'Open Sans', verdana, arial, sans-serif; font-size: 10px; fill: rgb(250, 250, 250); fill-opacity: 1; white-space: pre;">4</text></g></g></g><g class="annotation" data-index="5" style="opacity: 1;"><g class="annotation-text-g" transform="rotate(0,112.31,353.55)"><g class="cursor-pointer" transform="translate(107,346)"><rect class="bg" x="0.5" y="0.5" width="9" height="15" style="stroke-width: 1px; stroke: rgb(0, 0, 0); stroke-opacity: 0; fill: rgb(0, 0, 0); fill-opacity: 0;"/><text class="annotation-text" text-anchor="middle" x="5.1875" y="12" style="font-family: 'Open Sans', verdana, arial, sans-serif; font-size: 10px; fill: rgb(250, 250, 250); fill-opacity: 1; white-space: pre;">5</text></g></g></g><g class="annotation" data-index="6" style="opacity: 1;"><g class="annotation-text-g" transform="rotate(0,152.32,224.31)"><g class="cursor-pointer" transform="translate(147,216)"><rect class="bg" x="0.5" y="0.5" width="9" height="15" style="stroke-width: 1px; stroke: rgb(0, 0, 0); stroke-opacity: 0; fill: rgb(0, 0, 0); fill-opacity: 0;"/><text class="annotation-text" text-anchor="middle" x="5.1875" y="12" style="font-family: 'Open Sans', verdana, arial, sans-serif; font-size: 10px; fill: rgb(250, 250, 250); fill-opacity: 1; white-space: pre;">6</text></g></g></g><g class="annotation" data-index="7" style="opacity: 1;"><g class="annotation-text-g" transform="rotate(0,32.3,159.69)"><g class="cursor-pointer" transform="translate(27,152)"><rect class="bg" x="0.5" y="0.5" width="9" height="15" style="stroke-width: 1px; stroke: rgb(0, 0, 0); stroke-opacity: 0; fill: rgb(0, 0, 0); fill-opacity: 0;"/><text class="annotation-text" text-anchor="middle" x="5.1875" y="12" style="font-family: 'Open Sans', verdana, arial, sans-serif; font-size: 10px; fill: rgb(250, 250, 250); fill-opacity: 1; white-space: pre;">7</text></g></g></g><g class="annotation" data-index="8" style="opacity: 1;"><g class="annotation-text-g" transform="rotate(0,112.31,224.31)"><g class="cursor-pointer" transform="translate(107,216)"><rect class="bg" x="0.5" y="0.5" width="9" height="15" style="stroke-width: 1px; stroke: rgb(0, 0, 0); stroke-opacity: 0; fill: rgb(0, 0, 0); fill-opacity: 0;"/><text class="annotation-text" text-anchor="middle" x="5.1875" y="12" style="font-family: 'Open Sans', verdana, arial, sans-serif; font-size: 10px; fill: rgb(250, 250, 250); fill-opacity: 1; white-space: pre;">8</text></g></g></g><g class="annotation" data-index="9" style="opacity: 1;"><g class="annotation-text-g" transform="rotate(0,72.31,224.31)"><g class="cursor-pointer" transform="translate(67,216)"><rect class="bg" x="0.5" y="0.5" width="9" height="15" style="stroke-width: 1px; stroke: rgb(0, 0, 0); stroke-opacity: 0; fill: rgb(0, 0, 0); fill-opacity: 0;"/><text class="annotation-text" text-anchor="middle" x="5.1875" y="12" style="font-family: 'Open Sans', verdana, arial, sans-serif; font-size: 10px; fill: rgb(250, 250, 250); fill-opacity: 1; white-space: pre;">9</text></g></g></g><g class="annotation" data-index="10" style="opacity: 1;"><g class="annotation-text-g" transform="rotate(0,112.31,288.93)"><g class="cursor-pointer" transform="translate(104,281)"><rect class="bg" x="0.5" y="0.5" width="16" height="15" style="stroke-width: 1px; stroke: rgb(0, 0, 0); stroke-opacity: 0; fill: rgb(0, 0, 0); fill-opacity: 0;"/><text class="annotation-text" text-anchor="middle" x="8.359375" y="12" style="font-family: 'Open Sans', verdana, arial, sans-serif; font-size: 10px; fill: rgb(250, 250, 250); fill-opacity: 1; white-space: pre;">10</text></g></g></g><g class="annotation" data-index="11" style="opacity: 1;"><g class="annotation-text-g" transform="rotate(0,72.31,288.93)"><g class="cursor-pointer" transform="translate(64,281)"><rect class="bg" x="0.5" y="0.5" width="16" height="15" style="stroke-width: 1px; stroke: rgb(0, 0, 0); stroke-opacity: 0; fill: rgb(0, 0, 0); fill-opacity: 0;"/><text class="annotation-text" text-anchor="middle" x="8.359375" y="12" style="font-family: 'Open Sans', verdana, arial, sans-serif; font-size: 10px; fill: rgb(250, 250, 250); fill-opacity: 1; white-space: pre;">11</text></g></g></g><g class="annotation" data-index="12" style="opacity: 1;"><g class="annotation-text-g" transform="rotate(0,72.31,353.55)"><g class="cursor-pointer" transform="translate(64,346)"><rect class="bg" x="0.5" y="0.5" width="16" height="15" style="stroke-width: 1px; stroke: rgb(0, 0, 0); stroke-opacity: 0; fill: rgb(0, 0, 0); fill-opacity: 0;"/><text class="annotation-text" text-anchor="middle" x="8.359375" y="12" style="font-family: 'Open Sans', verdana, arial, sans-serif; font-size: 10px; fill: rgb(250, 250, 250); fill-opacity: 1; white-space: pre;">12</text></g></g></g></g></svg>